<?xml version="1.0" encoding="utf-8"?>
<!-- Generator: Adobe Illustrator 23.0.1, SVG Export Plug-In . SVG Version: 6.00 Build 0)  -->
<svg version="1.1" id="Layer_1" xmlns="http://www.w3.org/2000/svg" xmlns:xlink="http://www.w3.org/1999/xlink" x="0px" y="0px"
	 viewBox="0 0 64 64" style="enable-background:new 0 0 64 64;" xml:space="preserve">
<style type="text/css">
	.st0{fill:#E65100;}
	.st1{fill:#FF6D00;}
	.st2{fill:#FFFFFF;}
	.st3{fill:#EEEEEE;}
</style>
<path class="st0" d="M54.7,6.7H9.3l4,45.3L32,57.3L50.7,52L54.7,6.7z"/>
<path class="st1" d="M32,10.7v42.5l14.9-4.3l3.3-38.3H32z"/>
<path class="st2" d="M32,33.3V28h11.5l-0.9,15.3L32,46.8v-5.6l5.5-1.9l0.4-6H32z M43.9,22.7l0.4-5.3H32v5.3H43.9z"/>
<path class="st3" d="M32,41.2v5.6l-10.5-3.5L20.9,36h5.3l0.3,3.3L32,41.2z M25.5,22.7H32v-5.3H19.9l0.9,16H32V28h-6.1L25.5,22.7z"/>
</svg>
