<?xml version="1.0" encoding="utf-8"?>
<!-- Generator: Adobe Illustrator 23.0.1, SVG Export Plug-In . SVG Version: 6.00 Build 0)  -->
<svg version="1.1" id="Layer_1" xmlns="http://www.w3.org/2000/svg" xmlns:xlink="http://www.w3.org/1999/xlink" x="0px" y="0px"
	 viewBox="0 0 64 64" enable-background="new 0 0 64 64" xml:space="preserve">
<g>
	<path fill="#F7DF1E" d="M7.8,7.8h49.8V57H7.8V7.8z"/>
	<path d="M20.9,48.9l3.8-2.3c0.7,1.3,1.4,2.4,3,2.4c1.5,0,2.5-0.6,2.5-2.9V30.4h4.7v15.8c0,4.8-2.8,7-7,7
		C24.1,53.2,22,51.2,20.9,48.9"/>
	<path d="M37.4,48.4l3.8-2.2c1,1.6,2.3,2.8,4.6,2.8c1.9,0,3.2-1,3.2-2.3c0-1.6-1.3-2.1-3.4-3.1l-1.2-0.5c-3.4-1.4-5.6-3.2-5.6-7
		c0-3.5,2.7-6.1,6.9-6.1c3,0,5.1,1,6.7,3.7l-3.6,2.3c-0.8-1.4-1.7-2-3-2c-1.4,0-2.2,0.9-2.2,2c0,1.4,0.9,2,2.9,2.8l1.2,0.5
		c4,1.7,6.2,3.4,6.2,7.3c0,4.2-3.3,6.4-7.8,6.4C41.6,53.2,38.8,51.1,37.4,48.4"/>
</g>
</svg>
